<svg width="218" height="78" viewBox="0 0 218 78" fill="none" xmlns="http://www.w3.org/2000/svg">
<path d="M7.75518 16.6895C7.75518 16.1427 7.98125 15.6183 8.38367 15.2317C8.78608 14.8451 9.33187 14.6279 9.90097 14.6279H21.3452C21.9143 14.6279 22.4601 14.8451 22.8625 15.2317C23.2649 15.6183 23.491 16.1427 23.491 16.6895C23.491 17.2363 23.2649 17.7607 22.8625 18.1473C22.4601 18.5339 21.9143 18.7511 21.3452 18.7511H9.90097C9.33187 18.7511 8.78608 18.5339 8.38367 18.1473C7.98125 17.7607 7.75518 17.2363 7.75518 16.6895ZM9.90097 25.6233H21.3452C21.9143 25.6233 22.4601 25.4061 22.8625 25.0194C23.2649 24.6328 23.491 24.1084 23.491 23.5616C23.491 23.0149 23.2649 22.4905 22.8625 22.1038C22.4601 21.7172 21.9143 21.5 21.3452 21.5H9.90097C9.33187 21.5 8.78608 21.7172 8.38367 22.1038C7.98125 22.4905 7.75518 23.0149 7.75518 23.5616C7.75518 24.1084 7.98125 24.6328 8.38367 25.0194C8.78608 25.4061 9.33187 25.6233 9.90097 25.6233ZM30.6436 10.5046V40.742C30.6436 41.6533 30.2668 42.5273 29.5962 43.1717C28.9255 43.8161 28.0158 44.1781 27.0673 44.1781H4.17886C3.23036 44.1781 2.32071 43.8161 1.65002 43.1717C0.979329 42.5273 0.602539 41.6533 0.602539 40.742V10.5046C0.602539 9.59326 0.979329 8.71928 1.65002 8.0749C2.32071 7.43051 3.23036 7.06849 4.17886 7.06849H27.0673C28.0158 7.06849 28.9255 7.43051 29.5962 8.0749C30.2668 8.71928 30.6436 9.59326 30.6436 10.5046ZM26.3521 11.1918H4.89412V40.0548H26.3521V11.1918ZM15.6231 32.4954C15.0572 32.4954 14.5041 32.6567 14.0336 32.9587C13.5631 33.2607 13.1964 33.6901 12.9798 34.1923C12.7633 34.6946 12.7066 35.2473 12.817 35.7806C12.9274 36.3138 13.1999 36.8036 13.6 37.188C14.0001 37.5725 14.5099 37.8343 15.0649 37.9403C15.6199 38.0464 16.1952 37.992 16.718 37.7839C17.2408 37.5759 17.6876 37.2235 18.002 36.7715C18.3163 36.3194 18.4841 35.788 18.4841 35.2443C18.4841 34.5152 18.1827 33.8161 17.6462 33.3006C17.1096 32.785 16.3819 32.4954 15.6231 32.4954Z" fill="white"/>
<path d="M50.9661 38.8767H60.0962ZM50.9661 38.8767H41.8359Z" fill="white"/>
<path d="M60.0962 38.8767H50.9661H41.8359" stroke="white" stroke-width="5" stroke-linecap="round" stroke-linejoin="round"/>
<path d="M50.6714 38.8767V31.8082Z" fill="white"/>
<path d="M50.6714 38.8767V31.8082" stroke="white" stroke-width="5" stroke-linecap="round" stroke-linejoin="round"/>
<path d="M50.6714 31.8082H34.1782V9.42466H67.1645V31.8082H50.6714Z" stroke="white" stroke-width="5" stroke-linecap="round" stroke-linejoin="round"/>
<path d="M66.3786 42.3128H34.9631C32.8033 42.3128 31.0361 43.8811 31.0361 45.7979V66.7089C31.0361 68.6257 32.8033 70.1941 34.9631 70.1941H66.3786C68.5384 70.1941 70.3055 68.6257 70.3055 66.7089V45.7979C70.3055 43.8811 68.5384 42.3128 66.3786 42.3128ZM34.9631 45.7979H54.5978V66.7089H34.9631V45.7979ZM66.3786 66.7089H58.5247V45.7979H66.3786V66.7089ZM64.4151 51.0257H60.4882V47.5405H64.4151V51.0257ZM62.4517 57.996C61.3717 57.996 60.4882 57.2118 60.4882 56.2534C60.4882 55.295 61.3717 54.5108 62.4517 54.5108C63.5316 54.5108 64.4151 55.295 64.4151 56.2534C64.4151 57.2118 63.5316 57.996 62.4517 57.996ZM62.4517 64.9663C61.3717 64.9663 60.4882 64.1822 60.4882 63.2237C60.4882 62.2653 61.3717 61.4812 62.4517 61.4812C63.5316 61.4812 64.4151 62.2653 64.4151 63.2237C64.4151 64.1822 63.5316 64.9663 62.4517 64.9663ZM47.2348 63.2237C45.6836 63.2237 44.5448 62.5616 43.7202 62.0736C43.0722 61.6903 42.6991 61.4812 42.3261 61.4812C41.5996 61.4812 40.7553 62.1956 40.4608 62.5441L37.6727 60.0697C38.3599 59.3726 40.0485 57.996 42.3261 57.996C43.8969 57.996 45.0553 58.6756 45.88 59.1635C46.4886 59.5295 46.8813 59.7386 47.2348 59.7386C47.9612 59.7386 48.8055 59.0241 49.1001 58.6756L51.8882 61.1501C51.1813 61.8471 49.5124 63.2237 47.2348 63.2237ZM47.2348 54.5108C45.6836 54.5108 44.5448 53.8487 43.7202 53.3607C43.0722 52.9774 42.6991 52.7683 42.3261 52.7683C41.5996 52.7683 40.7553 53.4827 40.4608 53.8312L37.653 51.3568C38.3599 50.6597 40.0485 49.2831 42.3261 49.2831C43.8969 49.2831 45.0553 49.9627 45.88 50.4506C46.4886 50.8166 46.8813 51.0257 47.2348 51.0257C47.9612 51.0257 48.8055 50.3112 49.1001 49.9627L51.8882 52.4372C51.1813 53.1342 49.5124 54.5108 47.2348 54.5108Z" fill="white"/>
<path d="M10.529 52.5965C11.692 52.5965 12.6336 53.5381 12.6336 54.7011V66.126C12.6336 66.6842 12.4119 67.2195 12.0172 67.6142C11.6225 68.0089 11.0872 68.2306 10.529 68.2306H5.11241C4.55423 68.2306 4.01892 68.0089 3.62423 67.6142C3.22955 67.2195 3.00781 66.6842 3.00781 66.126V54.7011C3.00781 53.5381 3.95067 52.5965 5.11241 52.5965H10.529ZM8.12138 64.0154H7.52006L7.3974 64.0238C7.18151 64.0535 6.98368 64.1604 6.84047 64.3246C6.69727 64.4889 6.61837 64.6994 6.61837 64.9174C6.61837 65.1353 6.69727 65.3458 6.84047 65.5101C6.98368 65.6743 7.18151 65.7812 7.3974 65.8109L7.52006 65.8193H8.12138L8.24404 65.8109C8.45993 65.7812 8.65776 65.6743 8.80097 65.5101C8.94417 65.3458 9.02307 65.1353 9.02307 64.9174C9.02307 64.6994 8.94417 64.4889 8.80097 64.3246C8.65776 64.1604 8.45993 64.0535 8.24404 64.0238L8.12138 64.0154ZM24.3544 48.9886C25.0401 48.9885 25.7002 49.2487 26.2014 49.7166C26.7025 50.1845 27.0074 50.8252 27.0543 51.5093L27.0603 51.6945V61.9168C27.0604 62.6025 26.8002 63.2626 26.3323 63.7637C25.8644 64.2649 25.2237 64.5698 24.5396 64.6167L24.3544 64.6227H13.8314V54.4004C13.8316 53.6373 13.5415 52.9026 13.0201 52.3454C12.4986 51.7883 11.7848 51.4502 11.0233 51.3998L10.8237 51.3938H7.83395C7.90413 50.7661 8.19168 50.1828 8.64678 49.7448C9.10189 49.3068 9.69586 49.0419 10.3258 48.9958L10.5242 48.9886H24.3544ZM18.9426 60.4135H15.936C15.7076 60.4139 15.4878 60.5009 15.3211 60.657C15.1543 60.8131 15.053 61.0267 15.0376 61.2546C15.0222 61.4825 15.0938 61.7078 15.238 61.8849C15.3822 62.0621 15.5883 62.1779 15.8146 62.209L15.936 62.2175H18.9426C19.1711 62.2174 19.3911 62.1306 19.5581 61.9746C19.7251 61.8186 19.8266 61.605 19.8422 61.377C19.8578 61.149 19.7862 60.9236 19.642 60.7463C19.4978 60.569 19.2917 60.4531 19.0653 60.4219L18.9426 60.4135Z" fill="white"/>
<path d="M86.52 24.296C88.28 24.488 89.688 24.8 90.744 25.232C91.816 25.664 92.592 26.232 93.072 26.936C93.552 27.64 93.792 28.52 93.792 29.576C93.792 30.728 93.416 31.736 92.664 32.6C91.928 33.448 90.904 34.104 89.592 34.568C88.28 35.016 86.784 35.24 85.104 35.24C83.232 35.24 81.648 35.008 80.352 34.544C79.056 34.08 78.088 33.464 77.448 32.696C76.808 31.912 76.488 31.056 76.488 30.128C76.488 29.968 76.536 29.84 76.632 29.744C76.744 29.648 76.88 29.6 77.04 29.6H81.96C82.296 29.6 82.568 29.704 82.776 29.912C83.048 30.168 83.352 30.344 83.688 30.44C84.024 30.52 84.496 30.56 85.104 30.56C86.624 30.56 87.384 30.328 87.384 29.864C87.384 29.672 87.28 29.512 87.072 29.384C86.88 29.24 86.528 29.12 86.016 29.024C85.52 28.912 84.784 28.8 83.808 28.688C81.616 28.432 79.936 27.888 78.768 27.056C77.6 26.208 77.016 25.016 77.016 23.48C77.016 22.392 77.344 21.432 78 20.6C78.656 19.768 79.584 19.12 80.784 18.656C82 18.192 83.408 17.96 85.008 17.96C86.672 17.96 88.128 18.224 89.376 18.752C90.624 19.264 91.576 19.904 92.232 20.672C92.888 21.44 93.216 22.192 93.216 22.928C93.216 23.088 93.16 23.216 93.048 23.312C92.952 23.408 92.816 23.456 92.64 23.456H87.48C87.208 23.456 86.96 23.36 86.736 23.168C86.56 23.008 86.352 22.88 86.112 22.784C85.872 22.688 85.504 22.64 85.008 22.64C83.936 22.64 83.4 22.864 83.4 23.312C83.4 23.552 83.608 23.744 84.024 23.888C84.44 24.016 85.272 24.152 86.52 24.296ZM113.367 30.32C113.543 30.32 113.695 30.384 113.823 30.512C113.951 30.64 114.015 30.792 114.015 30.968V34.352C114.015 34.528 113.951 34.68 113.823 34.808C113.695 34.936 113.543 35 113.367 35H98.1986C98.0226 35 97.8706 34.936 97.7426 34.808C97.6146 34.68 97.5506 34.528 97.5506 34.352V18.848C97.5506 18.672 97.6146 18.52 97.7426 18.392C97.8706 18.264 98.0226 18.2 98.1986 18.2H113.127C113.303 18.2 113.455 18.264 113.583 18.392C113.711 18.52 113.775 18.672 113.775 18.848V22.232C113.775 22.408 113.711 22.56 113.583 22.688C113.455 22.816 113.303 22.88 113.127 22.88H103.791V24.392H111.807C111.983 24.392 112.135 24.456 112.263 24.584C112.391 24.712 112.455 24.864 112.455 25.04V28.16C112.455 28.336 112.391 28.488 112.263 28.616C112.135 28.744 111.983 28.808 111.807 28.808H103.791V30.32H113.367ZM135.509 34.256C135.541 34.32 135.557 34.392 135.557 34.472C135.557 34.616 135.501 34.744 135.389 34.856C135.293 34.952 135.173 35 135.029 35H129.581C129.357 35 129.149 34.944 128.957 34.832C128.781 34.72 128.653 34.576 128.573 34.4L126.461 29.648H124.445V34.352C124.445 34.528 124.381 34.68 124.253 34.808C124.125 34.936 123.973 35 123.797 35H118.613C118.437 35 118.285 34.936 118.157 34.808C118.029 34.68 117.965 34.528 117.965 34.352V18.848C117.965 18.672 118.029 18.52 118.157 18.392C118.285 18.264 118.437 18.2 118.613 18.2H127.949C129.389 18.2 130.645 18.432 131.717 18.896C132.805 19.36 133.637 20.032 134.213 20.912C134.789 21.792 135.077 22.824 135.077 24.008C135.077 26.184 134.237 27.76 132.557 28.736L135.509 34.256ZM127.445 25.208C127.797 25.208 128.069 25.096 128.261 24.872C128.453 24.632 128.549 24.336 128.549 23.984C128.549 23.632 128.453 23.328 128.261 23.072C128.085 22.8 127.813 22.664 127.445 22.664H124.445V25.208H127.445ZM155.276 18.2C155.42 18.2 155.54 18.256 155.636 18.368C155.748 18.464 155.804 18.584 155.804 18.728L155.78 18.896L150.26 34.208C150.18 34.432 150.052 34.624 149.876 34.784C149.7 34.928 149.468 35 149.18 35H143.588C143.3 35 143.068 34.928 142.892 34.784C142.716 34.624 142.596 34.456 142.532 34.28L136.964 18.896L136.94 18.728C136.94 18.584 136.988 18.464 137.084 18.368C137.196 18.256 137.324 18.2 137.468 18.2H142.532C142.82 18.2 143.052 18.288 143.228 18.464C143.42 18.624 143.548 18.8 143.612 18.992L146.372 28.184L149.132 18.992C149.196 18.784 149.316 18.6 149.492 18.44C149.668 18.28 149.908 18.2 150.212 18.2H155.276ZM170.027 30.08H174.371C174.547 30.08 174.699 30.144 174.827 30.272C174.955 30.4 175.019 30.552 175.019 30.728V34.352C175.019 34.528 174.955 34.68 174.827 34.808C174.699 34.936 174.547 35 174.371 35H159.155C158.979 35 158.827 34.936 158.699 34.808C158.571 34.68 158.507 34.528 158.507 34.352V30.728C158.507 30.552 158.571 30.4 158.699 30.272C158.827 30.144 158.979 30.08 159.155 30.08H163.547V23.12H159.155C158.979 23.12 158.827 23.056 158.699 22.928C158.571 22.8 158.507 22.648 158.507 22.472V18.848C158.507 18.672 158.571 18.52 158.699 18.392C158.827 18.264 158.979 18.2 159.155 18.2H174.371C174.547 18.2 174.699 18.264 174.827 18.392C174.955 18.52 175.019 18.672 175.019 18.848V22.472C175.019 22.648 174.955 22.8 174.827 22.928C174.699 23.056 174.547 23.12 174.371 23.12H170.027V30.08ZM184.945 28.52C184.945 29.176 185.161 29.68 185.593 30.032C186.041 30.384 186.641 30.56 187.393 30.56C188.065 30.56 188.561 30.448 188.881 30.224C189.201 30 189.473 29.664 189.697 29.216C189.905 28.8 190.185 28.592 190.537 28.592H195.721C195.865 28.592 195.985 28.648 196.081 28.76C196.193 28.856 196.249 28.976 196.249 29.12C196.249 30.096 195.921 31.056 195.265 32C194.609 32.928 193.609 33.704 192.265 34.328C190.937 34.936 189.313 35.24 187.393 35.24C185.681 35.24 184.153 34.984 182.809 34.472C181.481 33.944 180.425 33.144 179.641 32.072C178.857 30.984 178.465 29.632 178.465 28.016V25.184C178.465 23.568 178.857 22.224 179.641 21.152C180.425 20.064 181.481 19.264 182.809 18.752C184.153 18.224 185.681 17.96 187.393 17.96C189.313 17.96 190.937 18.272 192.265 18.896C193.609 19.504 194.609 20.28 195.265 21.224C195.921 22.152 196.249 23.104 196.249 24.08C196.249 24.224 196.193 24.352 196.081 24.464C195.985 24.56 195.865 24.608 195.721 24.608H190.537C190.185 24.608 189.905 24.4 189.697 23.984C189.473 23.536 189.201 23.2 188.881 22.976C188.561 22.752 188.065 22.64 187.393 22.64C186.641 22.64 186.041 22.816 185.593 23.168C185.161 23.52 184.945 24.024 184.945 24.68V28.52ZM215.32 30.32C215.496 30.32 215.648 30.384 215.776 30.512C215.904 30.64 215.968 30.792 215.968 30.968V34.352C215.968 34.528 215.904 34.68 215.776 34.808C215.648 34.936 215.496 35 215.32 35H200.152C199.976 35 199.824 34.936 199.696 34.808C199.568 34.68 199.504 34.528 199.504 34.352V18.848C199.504 18.672 199.568 18.52 199.696 18.392C199.824 18.264 199.976 18.2 200.152 18.2H215.08C215.256 18.2 215.408 18.264 215.536 18.392C215.664 18.52 215.728 18.672 215.728 18.848V22.232C215.728 22.408 215.664 22.56 215.536 22.688C215.408 22.816 215.256 22.88 215.08 22.88H205.744V24.392H213.76C213.936 24.392 214.088 24.456 214.216 24.584C214.344 24.712 214.408 24.864 214.408 25.04V28.16C214.408 28.336 214.344 28.488 214.216 28.616C214.088 28.744 213.936 28.808 213.76 28.808H205.744V30.32H215.32ZM82.992 58.52C82.992 59.176 83.208 59.68 83.64 60.032C84.088 60.384 84.688 60.56 85.44 60.56C86.112 60.56 86.608 60.448 86.928 60.224C87.248 60 87.52 59.664 87.744 59.216C87.952 58.8 88.232 58.592 88.584 58.592H93.768C93.912 58.592 94.032 58.648 94.128 58.76C94.24 58.856 94.296 58.976 94.296 59.12C94.296 60.096 93.968 61.056 93.312 62C92.656 62.928 91.656 63.704 90.312 64.328C88.984 64.936 87.36 65.24 85.44 65.24C83.728 65.24 82.2 64.984 80.856 64.472C79.528 63.944 78.472 63.144 77.688 62.072C76.904 60.984 76.512 59.632 76.512 58.016V55.184C76.512 53.568 76.904 52.224 77.688 51.152C78.472 50.064 79.528 49.264 80.856 48.752C82.2 48.224 83.728 47.96 85.44 47.96C87.36 47.96 88.984 48.272 90.312 48.896C91.656 49.504 92.656 50.28 93.312 51.224C93.968 52.152 94.296 53.104 94.296 54.08C94.296 54.224 94.24 54.352 94.128 54.464C94.032 54.56 93.912 54.608 93.768 54.608H88.584C88.232 54.608 87.952 54.4 87.744 53.984C87.52 53.536 87.248 53.2 86.928 52.976C86.608 52.752 86.112 52.64 85.44 52.64C84.688 52.64 84.088 52.816 83.64 53.168C83.208 53.52 82.992 54.024 82.992 54.68V58.52ZM113.367 60.32C113.543 60.32 113.695 60.384 113.823 60.512C113.951 60.64 114.015 60.792 114.015 60.968V64.352C114.015 64.528 113.951 64.68 113.823 64.808C113.695 64.936 113.543 65 113.367 65H98.1986C98.0226 65 97.8706 64.936 97.7426 64.808C97.6146 64.68 97.5506 64.528 97.5506 64.352V48.848C97.5506 48.672 97.6146 48.52 97.7426 48.392C97.8706 48.264 98.0226 48.2 98.1986 48.2H113.127C113.303 48.2 113.455 48.264 113.583 48.392C113.711 48.52 113.775 48.672 113.775 48.848V52.232C113.775 52.408 113.711 52.56 113.583 52.688C113.455 52.816 113.303 52.88 113.127 52.88H103.791V54.392H111.807C111.983 54.392 112.135 54.456 112.263 54.584C112.391 54.712 112.455 54.864 112.455 55.04V58.16C112.455 58.336 112.391 58.488 112.263 58.616C112.135 58.744 111.983 58.808 111.807 58.808H103.791V60.32H113.367ZM133.493 48.2C133.669 48.2 133.821 48.264 133.949 48.392C134.077 48.52 134.141 48.672 134.141 48.848V64.352C134.141 64.528 134.077 64.68 133.949 64.808C133.821 64.936 133.669 65 133.493 65H129.629C129.245 65 128.925 64.832 128.669 64.496L123.437 57.824V64.352C123.437 64.528 123.373 64.68 123.245 64.808C123.117 64.936 122.965 65 122.789 65H118.325C118.149 65 117.997 64.936 117.869 64.808C117.741 64.68 117.677 64.528 117.677 64.352V48.848C117.677 48.672 117.741 48.52 117.869 48.392C117.997 48.264 118.149 48.2 118.325 48.2H122.213C122.597 48.2 122.909 48.36 123.149 48.68L128.381 55.904V48.848C128.381 48.672 128.445 48.52 128.573 48.392C128.701 48.264 128.853 48.2 129.029 48.2H133.493ZM154.652 48.2C154.828 48.2 154.98 48.264 155.108 48.392C155.236 48.52 155.3 48.672 155.3 48.848V52.712C155.3 52.888 155.236 53.04 155.108 53.168C154.98 53.296 154.828 53.36 154.652 53.36H149.492V64.352C149.492 64.528 149.428 64.68 149.3 64.808C149.172 64.936 149.02 65 148.844 65H143.9C143.724 65 143.572 64.936 143.444 64.808C143.316 64.68 143.252 64.528 143.252 64.352V53.36H138.092C137.916 53.36 137.764 53.296 137.636 53.168C137.508 53.04 137.444 52.888 137.444 52.712V48.848C137.444 48.672 137.508 48.52 137.636 48.392C137.764 48.264 137.916 48.2 138.092 48.2H154.652ZM174.539 60.32C174.715 60.32 174.867 60.384 174.995 60.512C175.123 60.64 175.187 60.792 175.187 60.968V64.352C175.187 64.528 175.123 64.68 174.995 64.808C174.867 64.936 174.715 65 174.539 65H159.371C159.195 65 159.043 64.936 158.915 64.808C158.787 64.68 158.723 64.528 158.723 64.352V48.848C158.723 48.672 158.787 48.52 158.915 48.392C159.043 48.264 159.195 48.2 159.371 48.2H174.299C174.475 48.2 174.627 48.264 174.755 48.392C174.883 48.52 174.947 48.672 174.947 48.848V52.232C174.947 52.408 174.883 52.56 174.755 52.688C174.627 52.816 174.475 52.88 174.299 52.88H164.963V54.392H172.979C173.155 54.392 173.307 54.456 173.435 54.584C173.563 54.712 173.627 54.864 173.627 55.04V58.16C173.627 58.336 173.563 58.488 173.435 58.616C173.307 58.744 173.155 58.808 172.979 58.808H164.963V60.32H174.539ZM196.681 64.256C196.713 64.32 196.729 64.392 196.729 64.472C196.729 64.616 196.673 64.744 196.561 64.856C196.465 64.952 196.345 65 196.201 65H190.753C190.529 65 190.321 64.944 190.129 64.832C189.953 64.72 189.825 64.576 189.745 64.4L187.633 59.648H185.617V64.352C185.617 64.528 185.553 64.68 185.425 64.808C185.297 64.936 185.145 65 184.969 65H179.785C179.609 65 179.457 64.936 179.329 64.808C179.201 64.68 179.137 64.528 179.137 64.352V48.848C179.137 48.672 179.201 48.52 179.329 48.392C179.457 48.264 179.609 48.2 179.785 48.2H189.121C190.561 48.2 191.817 48.432 192.889 48.896C193.977 49.36 194.809 50.032 195.385 50.912C195.961 51.792 196.249 52.824 196.249 54.008C196.249 56.184 195.409 57.76 193.729 58.736L196.681 64.256ZM188.617 55.208C188.969 55.208 189.241 55.096 189.433 54.872C189.625 54.632 189.721 54.336 189.721 53.984C189.721 53.632 189.625 53.328 189.433 53.072C189.257 52.8 188.985 52.664 188.617 52.664H185.617V55.208H188.617Z" fill="white"/>
</svg>
