<?xml version="1.0" encoding="utf-8"?>
<svg version="1.1" xmlns:xlink="http://www.w3.org/1999/xlink" width="18px" height="14px" xmlns="http://www.w3.org/2000/svg">
  <g transform="matrix(1 0 0 1 -502 -436 )">
    <path d="M 15.0234515935057 7.68607954545455  C 15.1677690920024 7.73910984848485  15.2399278412508 7.83522727272727  15.2399278412508 7.97443181818182  L 15.2399278412508 11.1363636363636  C 15.2399278412508 11.9251893939394  14.9350571256765 12.5996685606061  14.325315694528 13.1598011363636  C 13.7155742633794 13.7199337121212  12.9813589897775 14  12.1226698737222 14  L 3.11725796752856 14  C 2.25856885147324 14  1.52435357787132 13.7199337121212  0.91461214672279 13.1598011363636  C 0.304870715574263 12.5996685606061  0 11.9251893939394  0 11.1363636363636  L 0 2.86363636363636  C 0 2.0748106060606  0.304870715574263 1.40033143939394  0.91461214672279 0.840198863636364  C 1.52435357787132 0.280066287878787  2.25856885147324 0  3.11725796752856 0  L 12.1226698737222 0  C 12.5772699939868 0  12.9993986770896 0.0828598484848477  13.3890559230307 0.248579545454545  C 13.4972940469032 0.29498106060606  13.5622369212267 0.371212121212121  13.5838845460012 0.477272727272727  C 13.6055321707757 0.589962121212121  13.5730607336139 0.686079545454545  13.4864702345159 0.765625  L 12.9561034275406 1.25284090909091  C 12.8839446782922 1.31912878787879  12.8009621166566 1.35227272727273  12.7071557426338 1.35227272727273  C 12.6855081178593 1.35227272727273  12.6530366806975 1.34564393939394  12.6097414311485 1.33238636363636  C 12.4437763078773 1.29261363636364  12.2814191220686 1.27272727272727  12.1226698737222 1.27272727272727  L 3.11725796752856 1.27272727272727  C 2.64101022248948 1.27272727272727  2.23331328923632 1.42850378787879  1.89416716776909 1.74005681818182  C 1.55502104630186 2.05160984848485  1.38544798556825 2.42613636363636  1.38544798556825 2.86363636363636  L 1.38544798556825 11.1363636363636  C 1.38544798556825 11.5738636363636  1.55502104630186 11.9483901515151  1.89416716776909 12.2599431818182  C 2.23331328923632 12.5714962121212  2.64101022248948 12.7272727272727  3.11725796752856 12.7272727272727  L 12.1226698737222 12.7272727272727  C 12.5989176187613 12.7272727272727  13.0066145520144 12.5714962121212  13.3457606734817 12.2599431818182  C 13.6849067949489 11.9483901515151  13.8544798556825 11.5738636363636  13.8544798556825 11.1363636363636  L 13.8544798556825 8.61079545454545  C 13.8544798556825 8.52462121212121  13.8869512928443 8.45170454545455  13.9518941671678 8.39204545454545  L 14.6446181599519 7.75568181818182  C 14.7167769092002 7.68939393939394  14.7997594708358 7.65625  14.8935658448587 7.65625  C 14.9368610944077 7.65625  14.9801563439567 7.66619318181818  15.0234515935057 7.68607954545455  Z M 18 2.54545454545455  C 18 2.76420454545455  17.913409500902 2.953125  17.740228502706 3.11221590909091  L 8.92964521948286 11.2059659090909  C 8.75646422128683 11.3650568181818  8.55081178592905 11.4446022727273  8.3126879134095 11.4446022727273  C 8.07456404088996 11.4446022727273  7.86891160553217 11.3650568181818  7.69573060733614 11.2059659090909  L 3.0414912808178 6.93039772727273  C 2.86831028262177 6.77130681818182  2.78171978352375 6.58238636363636  2.78171978352375 6.36363636363636  C 2.78171978352375 6.14488636363636  2.86831028262177 5.95596590909091  3.0414912808178 5.796875  L 4.23211064341551 4.703125  C 4.40529164161155 4.54403409090909  4.61094407696933 4.46448863636364  4.84906794948888 4.46448863636364  C 5.08719182200842 4.46448863636364  5.29284425736621 4.54403409090909  5.46602525556224 4.703125  L 8.3126879134095 7.31818181818182  L 15.3156945279615 0.884943181818182  C 15.4888755261575 0.725852272727273  15.6945279615153 0.646306818181818  15.9326518340349 0.646306818181818  C 16.1707757065544 0.646306818181818  16.3764281419122 0.725852272727273  16.5496091401082 0.884943181818182  L 17.740228502706 1.97869318181818  C 17.913409500902 2.13778409090909  18 2.32670454545455  18 2.54545454545455  Z " fill-rule="nonzero" fill="#0d6efd" stroke="none" transform="matrix(1 0 0 1 502 436 )" />
  </g>
</svg>